<svg xmlns="http://www.w3.org/2000/svg" viewBox="0 0 91.12 89.66"><defs><style>.cls-1{fill:#fef4e8;}.cls-1,.cls-2{fill-rule:evenodd;}.cls-2{fill:#2b2a29;}</style></defs><title>Ресурс 1</title><g id="Шар_2" data-name="Шар 2"><g id="Шар_1-2" data-name="Шар 1"><g id="Слой_1"><g id="_1734564687136" data-name=" 1734564687136"><path class="cls-1" d="M.36,73.58a34,34,0,0,0,.91-4.53,69.28,69.28,0,0,0,.81-10.66,71.38,71.38,0,0,0-.86-11,39.67,39.67,0,0,0-1-4.9c0-.1-.07-.2-.1-.3a3.55,3.55,0,0,1,1.54-4,63.52,63.52,0,0,1,7.79-4,94.21,94.21,0,0,1,15.3-5.23,8.29,8.29,0,0,1,0-4A7,7,0,0,1,30,19.64a14.6,14.6,0,0,0,6.8-3.48,28.61,28.61,0,0,0,3-3.13c1.45-1.68,2.84-3.42,4.16-5.2.62-.83,1.23-1.67,1.81-2.52,2.18-3.16,4.92-6,9.18-5.14,4.7,1,6.37,6.54,4.85,10.57q2.43-1.66,4.77-3.45C67.62,5,70.9,2.89,74.84,4.81c6,2.91,4,13.31-2,15a3.42,3.42,0,0,1-2.48-.19,8.11,8.11,0,0,0-2.53,1.18c0,.13,0,.26,0,.38.34.58.69,1.15,1,1.71a4.33,4.33,0,0,1-1.28,6,3.79,3.79,0,0,0-.34.2,91.32,91.32,0,0,1,13.38,4.57,62.73,62.73,0,0,1,8.83,4.51,3.51,3.51,0,0,1,1.61,3.58,3.44,3.44,0,0,1-.23.85,37.62,37.62,0,0,0-1,4.86,66.14,66.14,0,0,0-.94,11.06,63,63,0,0,0,1,11.22c.19,1,.41,2.08.66,3.11.07.28.14.56.22.84a3.55,3.55,0,0,1-.64,3.54,3.78,3.78,0,0,1-.79.7,66.51,66.51,0,0,1-12.3,6,88.13,88.13,0,0,1-31.26,5.78,89.92,89.92,0,0,1-31.46-5.77,69.94,69.94,0,0,1-12.51-6A3.56,3.56,0,0,1,.3,73.74l.06-.16Z"/><path class="cls-2" d="M87.32,74.9S70.37,86.07,45.73,86.07A84.47,84.47,0,0,1,3.7,74.9a64,64,0,0,0,2-16.51A70.34,70.34,0,0,0,3.6,41.18a84.61,84.61,0,0,1,26.53-9.77A15.58,15.58,0,0,0,28.72,29c-1.1-1.44-.8-5.2,2.08-5.89a18.08,18.08,0,0,0,8.26-4.22c2.06-1.71,6.37-6.83,9.64-11.58C50,5.52,51.64,3.15,54.17,3.69c3.22.68,3.11,6,1.07,7.32h0c-1.67-.6-4.63,2.93-5.54,4.85-.24,1.54,1,1.7.3,2.66l1.43,1.07c.71-.29,1.37-.59,2-.86a84,84,0,0,0,13.31-8.58c1.93-1.46,4.17-3.27,6.56-2.1,2.83,1.38,1.59,7.47-1.4,8.32-1.68-1.19-5.87,1-7.48,2.64-.78,1.52.48,1.71-.57,2.47,0,0,1.81,3,2,3.35a.72.72,0,0,1-.14,1c-2.24,1.4-4.93,3.32-8.13,5a83.19,83.19,0,0,1,30,10.41A66.21,66.21,0,0,0,85.25,58.5a60,60,0,0,0,2.07,16.4ZM12.25,59.63,12,59.58l-.26-.06a1,1,0,0,1-.27-.1.81.81,0,0,1-.23-.17.59.59,0,0,1-.11-.19c0-.08,0-.15,0-.21a1.1,1.1,0,0,1,0-.24c0-.12,0-.26,0-.41s0-.32,0-.49v-.46a1,1,0,0,1,.13-.53,1.2,1.2,0,0,1,.35-.36,1.48,1.48,0,0,1,.48-.2,2.31,2.31,0,0,1,.52-.06,5.74,5.74,0,0,1,.6,0,1.94,1.94,0,0,1,.5.14.93.93,0,0,1,.37.28,1.08,1.08,0,0,1,.23.48s0,.13,0,.25,0,.27,0,.42,0,.3,0,.45v.34a2.23,2.23,0,0,1,0,.23,1.2,1.2,0,0,1-.16.35,1.33,1.33,0,0,1-.3.34,1.07,1.07,0,0,1-.51.2H13c-.06,0-.08,0-.08.07V60c0,.06,0,.09-.08.09h-.51s-.08,0-.08-.08v-.15a.81.81,0,0,1,0-.16v0Zm36.18-2c-.76.08-2.28.25-2.59,1.29a1,1,0,0,0,.23,1c.51.52,1.58.2,1.13-.86.16-.51,1.54-.83,1.51.34,0,.89-.88,1.58-2.23,1.56-2,0-2.64-2.29-1.47-3.78,1.48-1.9,3.83-1.21,5.69-2.11.69-.33,1.24-1.37.51-1.72a.75.75,0,0,0-1.06.84,1.06,1.06,0,0,1-1.18.11c-.46-.28-.63-1.22.39-1.75a2.52,2.52,0,0,1,3.28,1.07,2.41,2.41,0,0,1-.78,2.8,5.24,5.24,0,0,1-1.62.81,4.88,4.88,0,0,1,1.2,3c-.09,3.74-3.81,4.54-6.35,4.54h0c-2.74,0-6.71-1-6.64-4.6a4.28,4.28,0,0,1,2.94-3.84l.24-.1-.22-.13c-1.74-.7-1.58-2.9,0-3.93a5.26,5.26,0,0,1,2.84-.79c1.27,0,2.95.37,3.38,1.65a1.57,1.57,0,0,1-.22,1.54,1.3,1.3,0,0,1-1.16.43A1.1,1.1,0,0,1,45.35,54c.66.08,1-1.56-.92-1.56a2.14,2.14,0,0,0-2.09,1.09A2.45,2.45,0,0,0,42.69,56l.05.07.09,0a2.56,2.56,0,0,1,.74-.16.57.57,0,0,1,.24,1.11.77.77,0,0,1-.27,0h0a2.34,2.34,0,0,1-.76-.21l0,0-.06,0a3.21,3.21,0,0,0-1.1.93,3.13,3.13,0,0,0,.23,3.71c1,1.13,3,1.3,4,1.3,1.67,0,4.32-.66,4.36-3a3.37,3.37,0,0,0-.68-2l-.16-.18c-.28,0-.55.09-.83.12ZM46.19,46.29c0-2.61-.08-6.7,0-8.46h0l-3.31.08h0a4.79,4.79,0,0,1,.57.66h0a1.71,1.71,0,0,1,.35,1c0,2.35.15,5.44,0,7.54h0v0c.05,0,.73,0,2.74,0h.14l.06,0a3.57,3.57,0,0,0,1.59.08,9.52,9.52,0,0,1,2.06,0,29.79,29.79,0,0,1,1.78-2.88l1.54.16s-.18,2.17-.32,3.05l3,.41A8.31,8.31,0,0,1,56,45.61a25.86,25.86,0,0,1,.43-3.91,4.8,4.8,0,0,1,.81-2.22,2.51,2.51,0,0,1,.46-.47v-.09c-2.36-.22-5-1.5-7.6-.5A2.93,2.93,0,0,0,50,43.79a4.8,4.8,0,0,1-2.79,3,1.13,1.13,0,0,1-.6,0,.71.71,0,0,1-.18-.08.56.56,0,0,1-.23-.41Zm-1.82.93ZM74,68.25l-1.23,1.2-1.5-.17c-.1-2.07-.12-3.89-.12-3.89l.44-.17s1.87,2.18,2.41,3ZM70.12,74c.74-.32,1.53-.63,1.53-.63-.15-.8-.17-1.72-.29-2.51l2.06.22,1.64-1.59c.42.63,1,1.35,1.42,2l2.66-1.06a3.48,3.48,0,0,1-.89-.49c-.15-.12-3.62-4.26-4.54-5.42a8.4,8.4,0,0,1,1.72-.28,16.71,16.71,0,0,1-1.12-1.63,22.52,22.52,0,0,0-3.32,1,37.45,37.45,0,0,0-3.54,1.62,16.36,16.36,0,0,1,.25,1.88,11,11,0,0,1,1.5-.85c.08,1.61.29,6.21.28,6.7,0,0,0,.43,0,.86l-.38-.12a29.29,29.29,0,0,1-4.58-2.46h0c-.17-.59.61-4.46,1.46-5.23.27-.25.41-.4.42-.46l-3.34.92c-.49,3.34-.45,5-2,5.45l0,0,0-.22h0a34.75,34.75,0,0,1-.9-4.61l-3,.64c.32.18.72.42.81.84.55,2.56,1.06,4.38,1.6,6.95a1.36,1.36,0,0,1-.07.79c-.13.38-.23.53-.28.54l3-.61a19,19,0,0,1-.87-3.12h0l1.51-.42c1.31,1,2.47,1.16,3.7,2.41a6.2,6.2,0,0,1,1.34-.37A9.44,9.44,0,0,0,70.16,74h0l0,0Zm3.25-25-1.72,0-1-1.15c1.34-1.59,2.57-2.93,2.57-2.93l.45.18s-.14,2.87-.32,3.86Zm-5.91,1.88.69.23c.43-.68,1.09-1.38,1.54-2L71,50.58l2.28,0c-.12.75-.17,1.69-.31,2.42l2.66,1a3.64,3.64,0,0,1-.32-1c0-.19.27-5.59.39-7.06a7.4,7.4,0,0,1,1.44,1,16.09,16.09,0,0,1,.31-2,21.59,21.59,0,0,0-3.12-1.54,37.23,37.23,0,0,0-3.69-1.24,12.82,12.82,0,0,1-1.1,1.54,11,11,0,0,1,1.68.41c-1.05,1.23-4,4.73-4.37,5.08a2,2,0,0,0-.18.21,25.91,25.91,0,0,1-1.84-3.78c.14-.6,2.59-3.58,3.71-3.83a2.12,2.12,0,0,0,.57-.15l-3.33-1c-2.17,2.76-2.8,4.4-4.49,3.8a36.08,36.08,0,0,1,1.27-4.64l-3.05-.65a1.42,1.42,0,0,1,.35,1.11c-.62,2.54-.91,4.24-1.55,6.78a1.38,1.38,0,0,1-.41.68c-.28.28-.45.42-.51.41a1.18,1.18,0,0,1,.3,0l2.69.61A16.8,16.8,0,0,1,61,45.66l1.59.41a18.27,18.27,0,0,1,1.66,3.66,4.28,4.28,0,0,0,1.1.4c.65.2,1.49.48,2.12.69Zm-39,21.08-1.7.24-1.11-1c1.15-1.73,2.22-3.2,2.22-3.2l.46.12S28.49,70.9,28.42,71.9ZM21.25,74c.85.25,2.19.71,2.19.71.35-.73,1-1.63,1.33-2.34l1.53,1.4,2.26-.3c0,.76,0,1.85,0,2.6l2.78.57a3.53,3.53,0,0,1-.43-.92c0-.19-.38-5.58-.42-7.06a8,8,0,0,1,1.54.8,15.26,15.26,0,0,1,.08-2,22.74,22.74,0,0,0-3.27-1.16A38,38,0,0,0,25,65.54a15.24,15.24,0,0,1-.92,1.65,13.86,13.86,0,0,1,1.72.22c-.9,1.34-3.46,5.17-3.76,5.55,0,0-.44.63-.77,1.07Zm8.24-28.68-1.36,1-1.47-.34c.14-2.07.33-3.88.33-3.88l.46-.12s1.6,2.38,2,3.29Zm-5.16,5.43L26.57,50c-.07-.81,0-1.64,0-2.44l2,.46,1.8-1.38c.35.67.81,1.36,1.13,2l2.82-.65a3.35,3.35,0,0,1-.83-.59c-.13-.14-3.1-4.65-3.88-5.91a7.83,7.83,0,0,1,1.74-.08,16.12,16.12,0,0,1-.92-1.75,22.45,22.45,0,0,0-3.42.62,38,38,0,0,0-3.7,1.19,14.79,14.79,0,0,1,0,1.89A11.33,11.33,0,0,1,25,42.77c-.11,1.61-.43,6.2-.5,6.68,0,0-.06.79-.13,1.33ZM52.46,73.12a2,2,0,0,1-2.5-2,2,2,0,0,1,2-1.79c.55-.06,1-.06,1.12.47L53.48,73l-1,.15ZM56.24,75a28.49,28.49,0,0,1-.59-3.48,6.86,6.86,0,0,1,0-2.89,2.66,2.66,0,0,1,.34-.55l0-.1c-2.34.33-4.93-.36-7.21,1.2a2.93,2.93,0,0,0,1.14,5.25A5.41,5.41,0,0,1,47.29,78c1.14.33,2.36-.28,3.71-.18a32.11,32.11,0,0,1,1.11-3.4l1.54-.2s.34,2.46.41,3.34l3.15-.4a8,8,0,0,1-1-2.18ZM43.35,70.44a2.55,2.55,0,0,0-.93-1.71l3.31-.08c-.11,1.8,0,6,0,8.61,0,.28.24.52.63.73-2.4,0-3.08,0-3,0,.19-2.11,0-5.21,0-7.57Zm-4.44,4.17c-.11,1.24-1.7,1.89-3.29,1.22.06-.27.2-1.71.24-2.11s.07-.54.08-.72,0-.26,0-.25a4,4,0,0,1,2.42.61A1.32,1.32,0,0,1,38.91,74.61Zm-.77-2.93a8.76,8.76,0,0,0-2-.25c-.11,0-.14,0-.1-.78,0-.47,0-.68,0-.87,0-.39.89-.33,1.27-.29a5.12,5.12,0,0,1,1.68.44,2.21,2.21,0,0,1,1.07.93,10.47,10.47,0,0,0,1.48-2.07,27.86,27.86,0,0,0-5.9-.91,17.64,17.64,0,0,0-2.41,0c.54.32.61,1.34.61,2.47a42.93,42.93,0,0,1-.68,6.19c1.46.58,4.18,1.61,6.18.64a2.8,2.8,0,0,0,1.17-4.13,4.17,4.17,0,0,0-2.45-1.4ZM16.83,67.42a3.11,3.11,0,0,1,.78-1.16c.69.56,2.15.8,2.57-.24a.75.75,0,0,0,0-.67,1.6,1.6,0,0,0-.48-.53,2.49,2.49,0,0,0-.77-.34A2.71,2.71,0,0,0,18,64.4a2.07,2.07,0,0,0-.82.25c-.24.14-.91.46-1,.74a4.8,4.8,0,0,1-.11-2.84A24.44,24.44,0,0,1,19.3,63a5,5,0,0,1,1.18.45,5.71,5.71,0,0,1,1,.67,3.5,3.5,0,0,1,.73.82,1.65,1.65,0,0,1-.67,2.61,2.7,2.7,0,0,1-1.65.29c2.66,1.72,1.86,4.57-.84,4.89a5.21,5.21,0,0,1-1.41,0,8.78,8.78,0,0,1-1.45-.36,7.35,7.35,0,0,1-1.3-.59,4.79,4.79,0,0,1-1-.77,1.81,1.81,0,0,1-.62-1.91,1.44,1.44,0,0,1,1.41-1,1.6,1.6,0,0,1,1.46.9c-1,.61-.71,1.61.65,2.08.65.22,2.07.19,2.33-1,.31-1.46-1.32-2.35-2.29-2.62Zm37-24.2-1-.08a2,2,0,0,1-2-2.52,2.09,2.09,0,0,1,2.41-1.34c.55.08,1,.25,1,.78l-.36,3.16Zm-9.46,4Zm-7.25-.82c0-.28-.42-3.07-.43-3.06a5.47,5.47,0,0,1,2.61-.11,1.33,1.33,0,0,1,1,1.29c.06.91-.54,2.28-3.14,1.88Zm4.39-3.92c-.8-.61-2.33-1.16-4.9-.48-.12,0-.15,0-.29-.74a7.38,7.38,0,0,1-.18-.85c-.06-.38.77-.53,1.15-.58a5.06,5.06,0,0,1,1.74,0,2.36,2.36,0,0,1,1.27.64,10,10,0,0,0,.92-2.36,26.86,26.86,0,0,0-5.93.55,15.66,15.66,0,0,0-2.33.61c.59.18.91,1.16,1.18,2.25A42.59,42.59,0,0,1,35,47.69c2,.19,4.68.49,6.38-.93A2.81,2.81,0,0,0,41.5,42.47ZM17.16,48.71a3.08,3.08,0,0,1-.28-1.35c.89-.1,2.1-1,1.64-2A.74.74,0,0,0,18,45a1.59,1.59,0,0,0-.72,0,2.45,2.45,0,0,0-.79.31,2.81,2.81,0,0,0-.7.58,1.83,1.83,0,0,0-.39.74,2.94,2.94,0,0,0-.22,1.23C13.65,46.92,13,46,13.09,45.94a25.3,25.3,0,0,1,2.63-2,6.11,6.11,0,0,1,1.17-.53,6,6,0,0,1,1.2-.25,3.71,3.71,0,0,1,1.11,0,1.6,1.6,0,0,1,1.41,2.25,2.72,2.72,0,0,1-1,1.35c3.12-.7,4.61,1.8,2.93,3.91a5.12,5.12,0,0,1-1,1,9.35,9.35,0,0,1-1.29.77,7.63,7.63,0,0,1-1.34.51,4.62,4.62,0,0,1-1.28.19,1.82,1.82,0,0,1-1.82-.86,1.38,1.38,0,0,1,.3-1.66,1.63,1.63,0,0,1,1.68-.41c-.29,1.14.66,1.59,2,1,.61-.3,1.6-1.33.91-2.33-.83-1.21-2.63-.66-3.51-.16Zm62.57,8.14s0,0,0,0h-.29l-.2.06A.8.8,0,0,0,79,57a.41.41,0,0,0-.08.28.62.62,0,0,0,0,.25.67.67,0,0,0,.14.15.52.52,0,0,0,.28.09h.22c.07,0,.1,0,.1-.09s0-.1,0-.18V57c0-.08,0-.13,0-.17Zm0,1.51a.05.05,0,0,0,0,0,.09.09,0,0,0,0,.06l-.11.18-.16.28a3.58,3.58,0,0,1-.18.32l-.17.31-.14.23,0,.1a.17.17,0,0,1-.26.08l-.11-.07-.12-.06a.1.1,0,0,1-.08,0,.14.14,0,0,1,0-.09l.11-.2c.06-.11.12-.23.2-.36l.22-.39.19-.32c0-.06,0-.09,0-.11l-.22-.1a.73.73,0,0,1-.21-.16.88.88,0,0,1-.16-.27,1.44,1.44,0,0,1-.06-.45.87.87,0,0,1,.14-.53,1,1,0,0,1,.31-.31,1.11,1.11,0,0,1,.33-.16l.19-.06.2,0h.76s.06,0,.07,0,0,0,0,.07v.22c0,.12,0,.26,0,.43v2.8a.13.13,0,0,1-.12.16h-.35l-.07,0a.1.1,0,0,1-.07-.07.43.43,0,0,1,0-.11v-.33c0-.14,0-.28,0-.42s0-.26,0-.37v-.25S79.73,58.36,79.72,58.36Zm-4,1.54h-.44c-.06,0-.09,0-.09,0a.42.42,0,0,1,0-.13V56.33a.06.06,0,0,1,0,0h.55l0,0,0,0c0,.06,0,.14,0,.26v1c0,.05,0,.07,0,.07h.68s0-.09,0-.2v-.35c0-.13,0-.25,0-.38v-.3s0-.08.09-.08h.51a.08.08,0,0,1,.07,0,.13.13,0,0,1,0,.08,1.64,1.64,0,0,0,0,.26c0,.12,0,.27,0,.43V58.2c0,.2,0,.4,0,.58v.51c0,.15,0,.27,0,.37v.17a.53.53,0,0,1,0,.11.19.19,0,0,1-.11,0h-.41a.14.14,0,0,1-.1,0,.19.19,0,0,1,0-.13V58.64c0-.16,0-.27,0-.35a.11.11,0,0,0,0-.06l-.06,0h-.61s-.07,0-.07.08c0,.21,0,.42,0,.62s0,.42,0,.63a.45.45,0,0,0,0,.11v.12s0,.07,0,.1,0,0,0,0ZM72.9,58s0,0,0,0,0,0,0,0a.22.22,0,0,0,.1,0h.18l.19-.06a.46.46,0,0,0,.16-.15.62.62,0,0,0,.09-.26,2.28,2.28,0,0,0,0-.27.27.27,0,0,0,0-.14,1,1,0,0,0-.08-.14.69.69,0,0,0-.13-.11.35.35,0,0,0-.14-.06H73c-.06,0-.09,0-.09.1s0,.15,0,.26V58Zm1.35-.39a1.19,1.19,0,0,1,0,.32,1.11,1.11,0,0,1-.14.29,1,1,0,0,1-.22.25.87.87,0,0,1-.31.18.72.72,0,0,1-.24.05l-.31,0-.06,0a.14.14,0,0,0,0,.07,4,4,0,0,1,0,.49v.48q0,.16-.18.15h-.29c-.1,0-.16-.06-.16-.16V56.67c0-.16,0-.26,0-.29a.09.09,0,0,1,.07-.09.67.67,0,0,1,.23,0h.79a1.16,1.16,0,0,1,.32.08,1,1,0,0,1,.27.17.91.91,0,0,1,.2.24,1.12,1.12,0,0,1,.1.31c0,.08,0,.17,0,.28v.26Zm-4-.74,0,0,0,0c0,.08,0,.15,0,.23s0,.15,0,.22l0,0,0,0h.46a.18.18,0,0,1,.14,0,.16.16,0,0,1,0,.12.57.57,0,0,0,0,.13.57.57,0,0,1,0,.13c0,.08-.07.12-.18.13s-.2,0-.4,0c0,0-.08,0-.08,0a.14.14,0,0,0,0,.09c0,.08,0,.18,0,.31v.84l0,0s0,0,0,0c.21,0,.22,0,.44,0h.39a.27.27,0,0,0,.09,0s0,0,.07.08v.08a.62.62,0,0,1,0,.13.66.66,0,0,1,0,.14v.08a.16.16,0,0,1,0,.09.12.12,0,0,1-.08,0H69.78a.11.11,0,0,1-.09,0,.19.19,0,0,1,0-.1v-1c0-.24,0-.5,0-.77V56.4c0-.07,0-.1.09-.1H71c.16,0,.23.07.21.23a.31.31,0,0,0,0,.1.27.27,0,0,0,0,.09.12.12,0,0,1,0,.1.14.14,0,0,1-.1.05h-.52l-.23,0ZM67,56.27h1.64a.13.13,0,0,1,.1,0s0,.05,0,.1v.15a.66.66,0,0,1,0,.14.17.17,0,0,1-.19.16c-.15,0-.19,0-.34,0s-.06,0-.06.06v3s0,.07-.06.07h-.39c-.09,0-.14,0-.14-.13s0-.22,0-.39V58.22c0-.22,0-.42,0-.6V57a.22.22,0,0,0,0-.09.15.15,0,0,0,0-.07s0,0,0,0H67l0,0a0,0,0,0,1,0,0v-.12a.76.76,0,0,1,0-.15c0-.06,0-.1,0-.15a.22.22,0,0,1,0-.08Zm-1.39,2.38a.25.25,0,0,0,0-.09.28.28,0,0,1,0-.09l0,0,0,0h.44l0,0,0,0a1.06,1.06,0,0,1,0,.25V59a1.37,1.37,0,0,1,0,.3,1.31,1.31,0,0,1-.15.37,1.1,1.1,0,0,1-.29.32.73.73,0,0,1-.45.13,1.13,1.13,0,0,1-.36-.06.79.79,0,0,1-.31-.2,1.1,1.1,0,0,1-.22-.35A1.29,1.29,0,0,1,64.3,59V57.14a1.78,1.78,0,0,1,0-.28,1.21,1.21,0,0,1,.12-.35.8.8,0,0,1,.78-.42.92.92,0,0,1,.43.08.77.77,0,0,1,.27.19.73.73,0,0,1,.15.25,1.47,1.47,0,0,1,.06.27,1.56,1.56,0,0,1,0,.2v.1a.25.25,0,0,1,0,.08s0,.05-.14.05h-.26a.19.19,0,0,1-.13,0,.22.22,0,0,1,0-.08.29.29,0,0,1,0-.12.68.68,0,0,0,0-.19.53.53,0,0,0-.08-.17.16.16,0,0,0-.15-.08.33.33,0,0,0-.21.07.29.29,0,0,0-.12.15.37.37,0,0,0,0,.17.82.82,0,0,0,0,.14v.2a2.91,2.91,0,0,0,0,.31v1.21a.88.88,0,0,0,.09.47.3.3,0,0,0,.25.13.27.27,0,0,0,.22-.1.9.9,0,0,0,.12-.24,1.33,1.33,0,0,0,0-.28,2,2,0,0,0,0-.22Zm-3.2-2.72a.27.27,0,0,1,0,.13.4.4,0,0,1-.15,0h-.46a.13.13,0,0,1,0-.08v-.31a.27.27,0,0,1,0-.12l0,0h.05c.12,0,.32,0,.44,0a.12.12,0,0,1,.1.11v.31Zm.15,2a.68.68,0,0,0-.08.16c-.27.52-.5,1.15-.78,1.66l-.09.16a.16.16,0,0,1-.1,0l-.14,0H61s0,0,0,0a.07.07,0,0,1,0,0v-.23c0-.12,0-.26,0-.43V56.34a.05.05,0,0,1,0,0l0,0h.48l0,0,0,0a.67.67,0,0,1,0,.18v2.15s0,0,0,0l.05-.09c.34-.65.63-1.4.92-2.07a.69.69,0,0,1,.05-.1c0-.06,0-.1.06-.11h.43l.11,0s0,.05,0,.1,0,.2,0,.3v1.82c0,.24,0,.46,0,.66v.74s0,0-.1,0l-.22,0-.21,0c-.07,0-.1,0-.1-.06V58.77c0-.14,0-.26,0-.37v-.51s0,0,0,0,0,0,0,0Zm-3.68-.34q0,.11-.06.24l-.06.29-.06.29c0,.1,0,.18-.05.25s0,.07,0,.07h.36q.09,0,.09,0a.16.16,0,0,0,0-.1s0-.1,0-.17a2.07,2.07,0,0,0,0-.22l0-.22,0-.17c0-.1,0-.17-.05-.21l0-.08s0,0,0,0a.08.08,0,0,0,0,.05Zm-.26-1.22H59l.18,0s.08,0,.08,0l.06.21c0,.11,0,.23.09.39s.07.32.11.5.08.37.13.56.08.38.12.57.08.35.11.5.07.27.09.37,0,.16,0,.19a.31.31,0,0,1,0,.16.27.27,0,0,1-.14.1l-.24.07h-.11s0,0,0-.1,0-.2-.07-.3l-.06-.29a.08.08,0,0,0-.09-.07h-.64l0,0,0,0a.62.62,0,0,0,0,.1c0,.05,0,.1-.05.16l0,.14,0,.07a.27.27,0,0,1-.11.15.24.24,0,0,1-.17,0H58l-.11,0c-.09,0-.12-.06-.1-.14s0-.07,0-.17.06-.23.1-.38L58,58.7c0-.2.09-.39.15-.59s.1-.4.15-.6.1-.37.14-.54.08-.3.11-.41,0-.18.05-.22Zm-3.85-.06,0,.12c0,.07.06.17.1.28s.09.25.14.38.09.26.13.38l.1.32.05.14c0,.05,0,.07,0,.08s0,0,0,0a1.48,1.48,0,0,1,.07-.22c0-.12.08-.26.13-.42l.17-.51c.05-.18.1-.34.14-.47s0,0,.06-.05l0,0h.49l0,0,0,0s0,0,0,0,0,.15,0,.29,0,.29,0,.47,0,.37.06.58l.06.62c0,.21,0,.42.06.61s0,.37.05.52,0,.27,0,.37a1.36,1.36,0,0,1,0,.15s0,0,0,0l-.11,0-.13,0-.11,0q-.12,0-.15,0s0-.07,0-.15,0-.11,0-.21,0-.21,0-.34,0-.27-.05-.41,0-.28,0-.42,0-.25-.05-.36,0-.2,0-.27,0,0,0,0,0,0,0,0l-.09.32c0,.14-.09.28-.13.42l-.11.37a1,1,0,0,0-.06.19l0,0s0,0,0,0l-.17,0a.65.65,0,0,1-.19,0,.19.19,0,0,1-.09-.05.31.31,0,0,1-.05-.1l-.21-.6c-.08-.2-.15-.39-.21-.59v0s0,0,0,0v.07s0,.11,0,.21,0,.21,0,.34,0,.26,0,.41,0,.28,0,.41,0,.25,0,.35,0,.19,0,.24a.06.06,0,0,1-.07.07h-.34a.26.26,0,0,1-.13-.06s-.05-.09,0-.17,0-.13,0-.29,0-.36,0-.59,0-.49.06-.75,0-.53.06-.76,0-.45,0-.62,0-.29,0-.34,0-.09.08-.09h.49ZM35,56.3h.35l.19,0c.06,0,.09,0,.09,0a1.19,1.19,0,0,1,.06.21c0,.1.06.23.1.38s.08.32.12.51.09.37.14.56.09.38.13.56.09.35.13.5.07.27.09.37a1.47,1.47,0,0,0,.05.19.21.21,0,0,1,0,.16s-.06.07-.15.1L36,60h-.12a.19.19,0,0,1-.05-.1c0-.1,0-.2-.07-.3a2.46,2.46,0,0,1-.07-.29.1.1,0,0,0-.1-.07h-.7l0,0,0,0a.93.93,0,0,1,0,.1.83.83,0,0,0,0,.15,1.13,1.13,0,0,0,0,.15l0,.07a.32.32,0,0,1-.12.15.3.3,0,0,1-.19,0h-.13l-.12,0c-.1,0-.13-.06-.11-.14s0-.07.05-.17.06-.23.11-.38l.14-.51c.06-.19.11-.39.17-.59s.11-.4.17-.59.1-.38.15-.54.08-.3.11-.41L35,56.3Zm.28,1.22c0,.06,0,.15-.06.24a2.86,2.86,0,0,0-.07.28l-.06.29c0,.1,0,.18-.06.25s0,.07,0,.07h.39a.16.16,0,0,0,.1,0,.16.16,0,0,0,0-.1c0-.05,0-.11,0-.18a1.55,1.55,0,0,0,0-.21l0-.22c0-.07,0-.13,0-.17s0-.17-.05-.21a.27.27,0,0,0,0-.08s0,0,0,0a.14.14,0,0,0,0,.06Zm-3.84,2.33H31c-.06,0-.1,0-.1-.05a.45.45,0,0,1,0-.13V56.29s0,0,0,0h.6l0,0,0,0a1.78,1.78,0,0,1,0,.26c0,.11,0,.23,0,.36s0,.24,0,.36v.24s0,.08.06.07h.74v-.2c0-.11,0-.23,0-.35s0-.26,0-.38v-.3s0-.08.09-.08H33a.11.11,0,0,1,.08,0,.08.08,0,0,1,0,.07s0,.14,0,.26v1c0,.2,0,.4,0,.59v.59c0,.18,0,.35,0,.5v.54a.23.23,0,0,1,0,.11.24.24,0,0,1-.12,0h-.44a.14.14,0,0,1-.11-.05.28.28,0,0,1,0-.13,1.79,1.79,0,0,0,0-.27v-.91a3.33,3.33,0,0,1,0-.35.08.08,0,0,0,0-.05l-.06,0h-.66c-.05,0-.08,0-.08.07v.63c0,.2,0,.41,0,.62v.23a.3.3,0,0,1,0,.1s0,0,0,0Zm-2.79-2.4h.28a.79.79,0,0,1,.28,0,1,1,0,0,1,.2.13.61.61,0,0,1,.15.17,1.14,1.14,0,0,1,.1.19,2,2,0,0,1,.11.53v.34a1.43,1.43,0,0,1-.14.54l-.13.2a1,1,0,0,1-.47.29,1.23,1.23,0,0,1-.35,0h-.51a.09.09,0,0,1-.1-.06.44.44,0,0,1,0-.1v-.55c0-.16,0-.33,0-.53V56.32a.1.1,0,0,1,.09-.11h.41s.05,0,.08.05l0,0v1.17Zm0,1.89h.15l.09,0a.3.3,0,0,0,.15-.09.57.57,0,0,0,.13-.19.88.88,0,0,0,.06-.35,1,1,0,0,0,0-.33.56.56,0,0,0-.1-.19.22.22,0,0,0-.13-.09.25.25,0,0,0-.12,0h-.11c-.05,0-.08,0-.08.06v1.22Zm-3.05-1.55s0,.1,0,.2-.06.2-.09.32-.07.26-.11.4-.08.27-.11.4-.07.24-.1.34-.05.18-.06.23,0,.1,0,.12a.16.16,0,0,1,0,.07l-.08,0h-.28a.31.31,0,0,1-.13-.06.13.13,0,0,1-.07-.16s0-.13.08-.3.11-.37.17-.61.14-.5.22-.77.14-.52.21-.76.12-.43.17-.6a2.06,2.06,0,0,1,.08-.27l0-.06.06,0H26l0,0,.06.2c0,.11.07.24.12.39s.1.33.15.51.11.38.17.57.11.38.17.56.1.35.14.5.08.27.11.37,0,.16.05.18,0,.06,0,.1,0,.07,0,.1a0,0,0,0,1,0,0l0,0-.15.06-.16,0a.26.26,0,0,1-.2,0,.25.25,0,0,1-.12-.16l0-.2c0-.1-.06-.21-.1-.33s-.07-.25-.11-.38a3.64,3.64,0,0,0-.11-.39c0-.12-.07-.23-.09-.33s-.05-.17-.07-.22l0-.16a1.09,1.09,0,0,0,0-.17s0,0,0,0a.14.14,0,0,0,0,.07,1,1,0,0,0,0,.12.51.51,0,0,0,0,.09ZM23.33,59.9H22.8l0,0a.25.25,0,0,1,0-.1V56.48c0-.08,0-.13,0-.17a.06.06,0,0,1,0-.06.08.08,0,0,1,.07,0h.49a.06.06,0,0,1,.07.07c0,.08,0,.22,0,.41s0,.41,0,.66v2.43a.07.07,0,0,1-.07.06Zm-4-3.66.05.12.12.28c0,.12.09.24.14.38s.1.26.14.38.09.22.12.31l.05.15a.14.14,0,0,0,0,.07s0,0,0,0a2,2,0,0,0,.08-.21l.15-.43c.05-.16.11-.33.17-.51s.12-.33.17-.46,0,0,.05-.05l.05,0h.58l0,0a.05.05,0,0,1,0,0,2.9,2.9,0,0,1,0,.29c0,.13,0,.29.05.46s0,.37.07.58,0,.42.07.63,0,.41.06.6,0,.37.06.52,0,.27,0,.37a1.36,1.36,0,0,1,0,.15s0,0-.05,0l-.11,0-.14,0-.12,0c-.09,0-.14,0-.17,0s0-.07,0-.15,0-.11,0-.21,0-.21,0-.34,0-.26-.06-.41l-.06-.41c0-.14,0-.26-.05-.37a2.43,2.43,0,0,0-.05-.26s0-.05,0-.05,0,0,0,.05-.06.19-.11.33l-.14.41c0,.14-.09.26-.12.37a1,1,0,0,0-.06.19l0,0a0,0,0,0,1,0,0l-.19,0a.7.7,0,0,1-.2,0c-.05,0-.08,0-.1,0a.33.33,0,0,1-.06-.1c-.07-.2-.15-.4-.23-.59s-.16-.4-.23-.6l0,0h0v.08s0,.11,0,.2,0,.22,0,.34,0,.26,0,.41,0,.28,0,.41,0,.25,0,.35,0,.18,0,.24,0,.07-.08.07h-.37a.3.3,0,0,1-.14-.06s0-.09,0-.17,0-.13,0-.29,0-.36.06-.59,0-.48.06-.75.05-.52.07-.76,0-.44.05-.62,0-.29,0-.34,0-.08.09-.08h.53ZM16,56.3h.34l.2,0a.14.14,0,0,1,.09,0l.06.21c0,.1.06.23.1.38s.08.32.12.51.09.37.14.56.09.38.13.56.09.35.12.5.07.27.1.37,0,.16,0,.19a.23.23,0,0,1,0,.16.26.26,0,0,1-.15.1l-.26.07h-.12s0-.05-.06-.1,0-.2-.07-.3-.05-.19-.07-.29a.08.08,0,0,0-.09-.07h-.7l0,0s0,0,0,0a.62.62,0,0,0,0,.1l-.05.15c0,.06,0,.1,0,.15s0,.06,0,.07a.27.27,0,0,1-.11.15.33.33,0,0,1-.2,0h-.12l-.12,0c-.1,0-.14-.06-.11-.14a1.47,1.47,0,0,1,0-.17c0-.1.06-.23.1-.38s.1-.32.15-.51.11-.39.16-.59.12-.4.17-.59.11-.38.15-.54.09-.3.12-.41L16,56.3Zm.28,1.22a2.46,2.46,0,0,0-.07.24l-.06.28-.06.29c0,.1-.05.18-.07.25s0,.07,0,.07h.4a.19.19,0,0,0,.1,0v-.1a.8.8,0,0,1,0-.18c0-.07,0-.14,0-.21a1.43,1.43,0,0,0,0-.22c0-.07,0-.13,0-.17a.93.93,0,0,0-.06-.21.14.14,0,0,0,0-.08s0,0,0,0,0,0,0,.06Zm-4,1.48v-.09a2.44,2.44,0,0,0,0-.27c0-.09,0-.18,0-.27V56.76s0-.07-.08-.06l-.13,0-.18.09a.55.55,0,0,0-.17.17.52.52,0,0,0-.07.29v.16c0,.09,0,.18,0,.29s0,.22,0,.33,0,.21,0,.29v.15s0,.1,0,.14a.31.31,0,0,0,.06.13.51.51,0,0,0,.13.12l.18.08a.36.36,0,0,0,.21,0Zm.66,0a.55.55,0,0,0,.42-.09l.09-.08.05-.09a.43.43,0,0,0,0-.12l0-.15V58c0-.11,0-.23,0-.34v-.3a.71.71,0,0,0,0-.2.53.53,0,0,0,0-.18.42.42,0,0,0-.11-.16.76.76,0,0,0-.2-.12l-.12,0s-.08,0-.1,0,0,0,0,.12a2.73,2.73,0,0,0,0,.31c0,.13,0,.27,0,.43V58c0,.17,0,.34,0,.5V59ZM71.77,9.65a2.82,2.82,0,0,0-1.65.43,15.44,15.44,0,0,0-1.48,1.07c-1.12.85-2.27,1.66-3.41,2.48-2.18,1.57-4.84,3.17-4.81,3.23-.57.5,1.43,3.61,2.07,3.34A4,4,0,0,1,64.3,17c2.07-1.5,5.57-4.06,7.51-3.1,1-.35,1.54-2.21,1.25-3.15a1.56,1.56,0,0,0-1.29-1ZM53.18,5.43a2.5,2.5,0,0,0-1.3.84,12,12,0,0,0-1,1.35c-.73,1.06-1.49,2.09-2.24,3.13-1.45,2-3.18,3.91-3.14,4-.24.63,2.42,2.64,2.75,2.31a3.22,3.22,0,0,1,.53-3.13c1.36-1.89,3.67-5.11,5.63-4.84.8-.6.7-2.35.18-3.09a1.4,1.4,0,0,0-1.42-.53ZM52,8.59a.37.37,0,0,1,0-.74.38.38,0,0,1,.38.37A.38.38,0,0,1,52,8.59Zm-2.54,3.27a.37.37,0,0,1-.37-.36.37.37,0,1,1,.37.36Zm-2.5,3a.36.36,0,0,1-.37-.36.37.37,0,0,1,.37-.38.38.38,0,0,1,.37.37.36.36,0,0,1-.37.37ZM31,26.74a.76.76,0,1,0,.74-.78.76.76,0,0,0-.74.78Zm2.62,6.52a38.91,38.91,0,0,0-2.7-4.67c-1.35-1.85-.89-2.9,0-3.38,1.46-.81,3-.52,5.36-2,.83-.53,1.77-1.22,2.74-2a40.89,40.89,0,0,0,5.45-5.15l5.11,4.22a15.73,15.73,0,0,1-2.1.53,28.16,28.16,0,0,1-5.5,0c-2.66-.2-4.1,2.05-3.32,4.78.15.53.3,1.16.43,1.83-.17-.18-.35-.36-.54-.53s-.31,0-.21.16h0q.49.63.93,1.29c.19,1,.36,2.11.49,3-.67.45-1.48,1-2.28,1.45.92-.1,1.84-.18,2.75-.24.69-.05.36.57,1.89.63a6.47,6.47,0,0,1-.22-1.25h0a37.6,37.6,0,0,0-1.21-5.8c-.78-2.4.06-3.32,1.14-3.53,1.8-.34,3.32.5,6.27-.26,1-.27,2.26-.66,3.53-1.13A44.19,44.19,0,0,0,59,17.71L63.65,25S56.12,29.51,51,31.34l-.32.11L48,32.38A59.91,59.91,0,0,1,65.72,35a119.5,119.5,0,0,0-22.11-1.33,4.29,4.29,0,0,1-.5,0,132.1,132.1,0,0,0-17.55,1.61h0a37.07,37.07,0,0,1,8.05-2ZM33,28.78c.62,1.23,1.3,2.41,1.87,3.67.14.32.63,0,.47-.29a13,13,0,0,0-2.14-3.53.13.13,0,0,0-.2.15Zm1.46-.41c.73,1.09,1.23,2.3,1.91,3.42.14.23.54.07.44-.19a10.1,10.1,0,0,0-2.2-3.35C34.56,28.17,34.42,28.28,34.49,28.37ZM35.85,28a23.64,23.64,0,0,1,1.84,3.1c.12.25.53.07.45-.19a8,8,0,0,0-2.14-3c-.08-.08-.22,0-.15.12Zm1.22-.39a10.42,10.42,0,0,1,1,1.4,11.46,11.46,0,0,0,.83,1.4.24.24,0,0,0,.4-.24,5.66,5.66,0,0,0-.9-1.56,6.41,6.41,0,0,0-1.13-1.2.14.14,0,0,0-.19.2ZM69.46,12.55A.41.41,0,0,1,69.2,12a.41.41,0,0,1,.51-.27.4.4,0,0,1,.26.51.4.4,0,0,1-.51.27ZM65.7,15.08A.41.41,0,0,1,66,14.3a.4.4,0,0,1,.26.51A.4.4,0,0,1,65.7,15.08Zm-3.64,2.29a.42.42,0,0,1-.26-.51.41.41,0,0,1,.51-.26.4.4,0,1,1-.25.77ZM41.38,24.2a.84.84,0,0,0,.56,1,.81.81,0,0,0,1-.55.83.83,0,0,0-.55-1,.85.85,0,0,0-1,.55Zm19.56-.26a.39.39,0,0,0,.07.23,2.08,2.08,0,0,1,.12.3.85.85,0,0,0,.33.51.22.22,0,0,0,.33-.2,1,1,0,0,0-.3-.6c-.12-.13-.26-.33-.45-.35a.11.11,0,0,0-.1.11Zm-1.16.43c.11.39.3.75.42,1.13s.6.17.49-.14a3,3,0,0,0-.36-.75c-.08-.11-.27-.4-.43-.39a.12.12,0,0,0-.12.15Zm-1.09.46c.2.4.28.84.45,1.25s.62.16.49-.14a2.7,2.7,0,0,0-.8-1.26c-.09-.07-.18.06-.14.15Zm-1.18.4c.23.47.35,1,.54,1.45.11.31.6.17.49-.14a3.8,3.8,0,0,0-.84-1.46A.12.12,0,0,0,57.51,25.23Zm-1.22.19c0,.22.17.53.25.73L57,27.22a.25.25,0,0,0,.47-.14A3,3,0,0,0,57,26c-.13-.19-.28-.58-.49-.68a.12.12,0,0,0-.18.08Zm-1.18.35c.09.34.21.69.33,1l.24.57.08.21s0,.17,0,.09c0,.33.54.32.51,0a3.33,3.33,0,0,0-.38-1,4.05,4.05,0,0,0-.64-1,.11.11,0,0,0-.18.11Zm-1.25.32c.3.71.53,1.47.79,2.21a.25.25,0,0,0,.48-.15A8.47,8.47,0,0,0,54.08,26C54,25.88,53.81,26,53.86,26.09Zm-1.31.27c.23.83.58,1.62.87,2.42a.25.25,0,0,0,.48-.14,7.2,7.2,0,0,0-1.11-2.38c-.09-.11-.28-.05-.24.1Zm-1.26.21c.3.91.64,1.8.92,2.72a.26.26,0,0,0,.49-.15,6.38,6.38,0,0,0-1.21-2.69C51.41,26.36,51.26,26.46,51.29,26.57Zm-1.3.2c.31,1,.69,1.95.93,3,.08.32.57.17.49-.15a7.41,7.41,0,0,0-1.22-2.89C50.12,26.6,50,26.65,50,26.77ZM48.66,27a20.58,20.58,0,0,1,1,3.19c.07.32.55.17.49-.15a9.56,9.56,0,0,0-1.2-3.15c-.08-.13-.31,0-.25.11Zm-1.45.23a10.66,10.66,0,0,1,.55,1.62,11.58,11.58,0,0,0,.41,1.69.26.26,0,0,0,.5-.08,6.26,6.26,0,0,0-.44-1.84A6.53,6.53,0,0,0,47.46,27C47.36,26.88,47.14,27,47.21,27.19Zm-1.34,0a26.45,26.45,0,0,1,.9,3.61c0,.32.52.33.51,0a8.24,8.24,0,0,0-1.22-3.68.1.1,0,0,0-.19.08Zm-1.48-.05c.41,1.31.53,2.69.88,4a.26.26,0,0,0,.5-.08,10.43,10.43,0,0,0-1.19-4c-.06-.1-.22,0-.19.09Zm-1.58,0c.24,1.39.57,2.77.75,4.17,0,.37.63.36.58,0A13.85,13.85,0,0,0,43.05,27c-.08-.14-.26,0-.24.1Z"/></g></g></g></g></svg>