<svg xmlns="http://www.w3.org/2000/svg" viewBox="0 0 98.22 74.22"><defs><style>.cls-1,.cls-2{fill:#fefefe;}.cls-2,.cls-3,.cls-5{fill-rule:evenodd;}.cls-3,.cls-6{fill:#9d231f;}.cls-4,.cls-5{fill:#e31e24;}</style></defs><title>Ресурс 1</title><g id="Шар_2" data-name="Шар 2"><g id="Шар_1-2" data-name="Шар 1"><g id="Слой_1"><g id="_1734564686880" data-name=" 1734564686880"><path class="cls-1" d="M44.52,72.88l2.87-3.08h0l0,0,0,0,0,0,0,0,0,0h0l0,0h0l0,0h.57l0,0h0l0,0,0,0h0l0,0,0,0,0,0,0,0,2.87,3.08-.19.16L51,73.2l-.19.14-.21.13-.21.12-.21.11-.21.1-.22.09-.22.08-.23.06-.22.06-.23,0-.23,0-.23,0H47.5l-.22,0-.23,0-.23,0L46.59,74,46.37,74l-.22-.08-.22-.09-.21-.1-.22-.11-.2-.12-.21-.13-.19-.14L44.7,73l-.18-.16Zm0,0a2.1,2.1,0,0,1,2.87-3.08l-2.87,3.08ZM36.35,59.51l11,10.29-2.87,3.08-11-10.29L34.53,59Zm-2.87,3.08a2.11,2.11,0,0,1-.1-3,2.09,2.09,0,0,1,3-.1ZM11.27,69.4l3.8-1.8-3-.92.05,0,.08,0,.14-.08.18-.1.24-.13.28-.14L13.4,66l.37-.19.42-.21.46-.22.51-.24.54-.26.59-.26.63-.28.67-.29.71-.29.75-.31.79-.31.83-.31.86-.32.9-.32.94-.31,1-.32,1-.32,1-.31,1.07-.3,1.11-.3L29.69,60l1.17-.28,1.19-.27,1.23-.26L34.53,59l.77,4.14-1.19.23L33,63.59l-1.14.26-1.1.26-1.08.28-1.05.28-1,.29-1,.3-1,.3-.92.3-.89.3-.85.3-.82.3-.78.3-.75.29-.71.29-.67.28-.63.27-.59.26-.56.25-.51.24-.47.22-.42.21-.39.19-.34.17-.29.16-.25.13-.21.11-.15.08-.11.07-.07,0h0l-3-.92Zm3,.92a2.11,2.11,0,0,1-2.12-3.64ZM5.71,47.88,15.07,67.6l-3.8,1.8L1.91,49.68,2.74,47l3,.91Zm-3.8,1.8a2.1,2.1,0,1,1,3.8-1.8Zm3,.9h0L2.74,47h0l3,.9ZM2.76,47a2.1,2.1,0,1,1,2.13,3.62ZM4,44.26l1.72,3.6L1.93,49.68.21,46.08,1,43.35ZM.21,46.08A2.1,2.1,0,1,1,4,44.26L.21,46.08Zm11-4.24,2.87-3.08-.68,3.5-.6.24-.59.23-.57.23-.55.23-.54.23-.52.22-.51.22-.48.21-.47.21-.45.21-.43.19-.42.2-.4.19-.37.18-.36.17-.34.17-.32.16-.3.15L4.92,46l-.26.14-.24.12-.22.12-.2.11-.18.09-.15.09-.14.07-.12.07-.09,0-.07,0,0,0,0,0h0L1,43.35h0l0,0,.06,0,.09-.05.11-.06.13-.07L1.64,43l.18-.1.19-.1.22-.12.24-.12.26-.14L3,42.3l.3-.16L3.62,42,4,41.81l.36-.17.38-.19.4-.19.41-.19L6,40.86l.45-.2.47-.22.49-.22L7.87,40l.53-.23.54-.23.56-.23.58-.24.59-.24.62-.25.62-.24-.67,3.5Zm.67-3.5a2.1,2.1,0,1,1,1.52,3.92l-1.52-3.92Zm.79-.9,1.41,1.32-2.87,3.08L9.83,40.52h0ZM9.83,40.52a2.1,2.1,0,1,1,2.87-3.08L9.83,40.52Zm0-6.82,2.87,3.08h0l0,0,0,0,0,0v0l0,0v.44l0,0v0l0,0,0,0,0,0L9.82,40.52l-.17-.17-.17-.18L9.32,40l-.14-.2L9,39.58l-.12-.21-.11-.21-.1-.22-.09-.22-.08-.22-.06-.23L8.42,38l0-.23,0-.23,0-.24v-.47l0-.23,0-.23,0-.23L8.47,36l.07-.23.08-.23.09-.21.1-.22.11-.22.12-.2.14-.2.14-.2.16-.19.17-.18.17-.17Zm0,0a2.1,2.1,0,1,1,2.88,3.07L9.82,33.7ZM47.39,4.42,12.7,36.78,9.83,33.7,44.52,1.34h0ZM44.52,1.34a2.1,2.1,0,1,1,2.87,3.08Zm6.89,0L48.54,4.42h0l0,0,0,0,0,0,0,0,0,0h0l0,0h0l0,0h-.57l0,0h0l0,0h0l0,0,0,0,0,0,0,0,0,0L44.52,1.34l.19-.16L44.9,1l.2-.14.2-.13.21-.12.21-.11.21-.1.22-.09.22-.08.22-.06.23-.06.23,0,.23,0,.23,0h.91l.23,0,.23,0,.23.05.22.06.23.06.22.08L50,.42l.21.1.21.11.21.12.2.13L51,1l.19.16.19.16Zm0,0a2.1,2.1,0,0,1-2.87,3.08Zm8.13,13.34-11-10.26,2.87-3.08,11,10.26-.21,3.26-2.66-.18Zm2.87-3.08a2.1,2.1,0,1,1-2.87,3.08l2.87-3.08Zm2-3.73,2.69,3.24h0l-.15.12-.15.12-.14.13-.15.12-.15.12-.15.12L66,12l-.15.12-.15.12-.15.12-.16.12-.15.12-.15.12-.15.11-.15.12-.16.12-.15.12-.15.11-.16.12-.15.12-.16.11-.15.12-.15.11-.16.12-.15.11-.16.11L63,14.3l-.16.11-.15.11-.16.11-.15.12-.16.11-2.44-3.43.14-.1.15-.11.15-.11.15-.11.15-.1.14-.11.15-.11.15-.11.15-.11.14-.11.15-.11.15-.11.15-.11.14-.11L62,9.8l.14-.11.15-.11.14-.12.15-.11.14-.11.15-.11L63,9l.14-.11.15-.11.14-.11.14-.12.14-.11.14-.12L64,8.22l.14-.12L64.25,8l.14-.12Zm0,0a2.11,2.11,0,0,1,2.69,3.24Zm8.53-4.39L71.83,7.55l.17,0h-.42l-.08,0-.1,0-.1,0-.12,0-.12.06-.13.08L70.79,8l-.15.1-.15.1-.16.12-.17.13L70,8.55l-.18.15-.18.15L69.45,9l-.2.17-.19.18-.2.18-.21.18-.21.19-.21.2-.22.2-.23.19-.22.21-.24.2-.24.2L64.39,7.87l.2-.17.2-.17L65,7.35l.2-.18L65.41,7l.21-.18.2-.19L66,6.42l.22-.19.21-.2.22-.19.21-.19.23-.18.22-.19.23-.18.24-.18.24-.18.25-.17.25-.16.26-.16.28-.16L69.37,4l.29-.13L70,3.7l.32-.1.33-.09L71,3.44l.34,0,.36,0H72l.37,0,.37,0,.17,0Zm-.17,0A2.11,2.11,0,1,1,72,7.59Zm-.37,4.25-.55-.14,1.09-4.07.55.15.18.06-1.27,4Zm1.09-4.06a2.1,2.1,0,1,1-1.09,4.06Zm1.17.52L72.52,7.79H72.2l1.45-3.95h.12l0,0h0l0,0H74l0,0h.06l0,0,0,0h0l0,0h0l0,0,0,0h0l0,0,0,0,0,0h0l0,0,0,0h0l0,0Zm0,0a2.11,2.11,0,1,1-2.1,3.65ZM71,16.51l2.44-3.43-1.85-.29.12,0,.11-.06.12-.07.13-.09.12-.1.13-.12.12-.14.13-.16.12-.18.11-.18.11-.2.09-.22.09-.21.08-.23.06-.23.05-.23,0-.24,0-.22V9.42l0-.2,0-.2,0-.18,0-.17-.06-.16-.07-.13L73,8.25l-.07-.11L72.84,8,72.75,8l-.11-.08-.12-.08,2.12-3.64.46.3.43.34.38.37.34.4.3.43.26.44.21.45.17.47.14.46.1.48.07.47,0,.47v.48l0,.47,0,.46-.07.46-.1.46-.12.45-.15.44-.17.43-.2.43-.21.41-.25.4-.26.39-.3.37-.32.35-.34.34-.38.31-.4.28-.43.25-.46.22-.49.18L71,16.51Zm1.84.3a2.1,2.1,0,0,1-1.25-4Zm-6.27-1.35-2.87,3.08.23-3.27.26-.18.26-.17.27-.17.27-.17.27-.17.28-.16.28-.16.28-.16.28-.15.28-.14.29-.14.28-.13.29-.13.29-.13.29-.11.29-.11.29-.1L69,12.7l.29-.08.3-.07.3-.06.3-.05.31,0,.31,0h.64l.33,0,.34.06.34.1.34.13.34.16.33.21L71,16.51l0,0,0,0h-.34l-.13,0-.14,0-.16,0-.17,0-.17.05-.19.07-.2.07-.2.08-.2.09-.22.09-.21.1-.22.11-.22.11-.23.12-.22.13-.22.13-.23.13-.22.14-.22.13-.22.15-.22.14-.22.15.24-3.27Zm-.24,3.27a2.11,2.11,0,1,1-2.4-3.46l2.4,3.46ZM83.23,36.78,63.68,18.54l2.87-3.08L86.1,33.7h0l-2.87,3.08ZM86.1,33.7a2.1,2.1,0,1,1-2.87,3.08L86.1,33.7Zm0,6.82-2.87-3.08h0l0,0,0,0,0,0v0l0,0v-.44l0,0v0l0,0,0,0,0,0L86.1,33.7l.18.17.16.18.16.19.15.2.13.2.13.2.11.22.1.21.09.22.08.23.06.23.06.23,0,.23,0,.23,0,.23v.47l0,.24,0,.23,0,.23-.06.23-.06.23-.08.22-.09.22-.1.22-.11.21-.13.21-.13.2-.15.2-.15.19-.17.18-.18.17Zm0,0a2.1,2.1,0,0,1-2.87-3.08l2.87,3.08Zm-3.64-2.36.77-.72,2.87,3.08-.77.72-2.16.43-.71-3.51Zm2.87,3.08a2.1,2.1,0,0,1-2.87-3.08ZM98,46.12l-3.8-1.8L95,47h0L95,47l-.09,0-.11-.06-.13-.07-.16-.09-.18-.1-.21-.11-.23-.13-.26-.13-.28-.15-.3-.15-.33-.17-.35-.17L92,45.41l-.4-.19-.41-.2-.44-.2-.46-.22-.48-.22-.5-.22-.52-.24-.54-.23-.56-.24-.58-.25L86.45,43l-.62-.25-.64-.25-.65-.26-.68-.26-.69-.26,1.46-3.94.72.27.7.26.69.27.66.27.65.26.63.26.6.25.59.26.56.24.55.24.52.24.51.23.48.22.46.22.43.21.42.2.39.2.37.18.35.18.32.16.3.16.27.14.26.14.22.12.2.11.18.1.15.08.13.07.1.06.07,0,0,0h0L98,46.12Zm-.83-2.71A2.11,2.11,0,0,1,95,47ZM93.4,46l.81-1.72,3.8,1.8-.81,1.72-3,.92Zm3.8,1.8A2.1,2.1,0,0,1,93.4,46l3.8,1.8Zm.09,0-3.81-1.79.84,2.71-.42-.32.32.26.22.13-.14-.08-.09,0,.13.07,0,0-.06,0,.07,0-.06,0,0,0,.06,0,0,0h0l0,0,0,0,0,0,0,0,0,0h0l0,0,0,0h0l0,0h0l0,0h0l2.12-3.64h0l0,0h0l0,0h0l0,0h0l0,0h0l0,0,0,0h0l0,0,.06,0,0,0-.06,0,.08,0-.06,0h0l.13.08-.08-.06-.15-.07.23.13.32.26-.42-.32.84,2.7Zm-.84-2.7a2.1,2.1,0,1,1-2.13,3.62ZM88.87,55.9l4.61-9.81,3.81,1.79-4.61,9.81L88.87,55.9Zm3.81,1.79a2.1,2.1,0,1,1-3.81-1.79ZM84.2,65.85l4.67-9.95,3.81,1.79L88,67.64l-3,.93-.86-2.72ZM88,67.64a2.1,2.1,0,1,1-3.81-1.79Zm-.08,0L84.12,65.8l2.93-.94h0l0,0h0l0,0h0l-.07,0,.06,0,0,0-.06,0,0,0h0l0,0h0l0,0h0l0,0-.1-.06.06,0,.13.08,0,0-.06,0-.08,0,.11,0,0,0,.18.12-.32-.2-.28-.11.83.5-.44-.33-2.1,3.65-.44-.34.82.51-.28-.11-.32-.2.18.12,0,0,.1.05-.08,0-.06,0,0,0,.13.08.05,0-.1-.06,0,0h0l0,0h0l0,0h0l0,0-.07,0h0l.06,0-.08,0h0l2.92-1Zm-2.92,1a2.1,2.1,0,1,1,2-3.68l-2,3.68Zm-1.78-.83.89-1.91,3.81,1.79L87,69.5l-3,.92-.83-2.71ZM87,69.5a2.1,2.1,0,1,1-3.81-1.79ZM62.8,62.25l-2.87-3.08,1.77-.53,1.36.23,1.34.25,1.3.27,1.27.28L68.2,60l1.21.31,1.17.31,1.13.33,1.1.33,1.06.33,1,.34,1,.34.95.33.9.34.86.33.83.33.78.32.73.31.69.31.65.29.6.27.55.27.51.24.46.23.41.21.35.18.31.17.26.14.2.11.15.08.1.06,0,0-2.14,3.63h0l-.06,0-.13-.06-.17-.1-.23-.12-.27-.15-.33-.17-.37-.19-.43-.21-.47-.23-.51-.24-.57-.26-.6-.28-.65-.28-.7-.3-.73-.3-.78-.31-.82-.31-.86-.32-.89-.32-.94-.32-1-.32-1-.32-1-.31-1.08-.31-1.11-.3-1.14-.29L66,63.77l-1.2-.27-1.23-.25L62.32,63,61,62.79l1.77-.54ZM61,62.79a2.1,2.1,0,1,1,.67-4.15Zm-12.49,7L59.93,59.17l2.87,3.08L51.41,72.88h0Zm2.87,3.08a2.1,2.1,0,1,1-2.87-3.08l2.87,3.08Z"/><path id="_1" data-name="1" class="cls-2" d="M50,71.34a3,3,0,0,1-4,0l-11-10.29A73.86,73.86,0,0,0,13.17,68.5L3.81,48.78h0L2.1,45.17A81.23,81.23,0,0,1,12.67,40.3L11.26,39a2.52,2.52,0,0,1,0-3.74L46,2.88a3,3,0,0,1,4,0L61,13.14c1.62-1.15,3.23-2.38,4.75-3.65,2.38-2,4.3-4.4,6.64-4l.55.15a3.92,3.92,0,0,1,.66.31c3.25,1.89,1.87,7.81-1.38,8.83-1.39-1-4.58.46-7.09,2.2L84.67,35.24a2.52,2.52,0,0,1,0,3.74l-.77.72a83,83,0,0,1,12.21,5.52l-.81,1.72.08.05-4.6,9.81-4.67,9.94-.08,0-.9,1.91a74.66,74.66,0,0,0-23.76-7.9L50,71.34Z"/><g id="_1734564687392" data-name=" 1734564687392"><path class="cls-3" d="M50,71.34a3,3,0,0,1-4,0L11.26,39a2.52,2.52,0,0,1,0-3.74L46,2.88a3,3,0,0,1,4,0l34.7,32.36a2.52,2.52,0,0,1,0,3.74L50,71.34Z"/><path class="cls-4" d="M45.23,67.49l-30-28,.55-.53a2.73,2.73,0,0,0,.59-.87,2.61,2.61,0,0,0,.2-1,2.64,2.64,0,0,0-.74-1.84l-.52-.53L45.4,6.57l.5.61a2.76,2.76,0,0,0,.92.74A2.62,2.62,0,0,0,50,7.18l.5-.62L80.66,34.67l-.52.54a2.71,2.71,0,0,0-.55.85,2.5,2.5,0,0,0-.2,1,2.62,2.62,0,0,0,.21,1,2.58,2.58,0,0,0,.59.87l.55.53L50.28,67.88l-.5-.44A2.48,2.48,0,0,0,49,67a2.62,2.62,0,0,0-.94-.17,2.52,2.52,0,0,0-1,.18,2.79,2.79,0,0,0-.84.53l-.5.46-.5-.46Zm-28-28.09L45.77,66a3.64,3.64,0,0,1,.76-.39,4.05,4.05,0,0,1,3,0,3.46,3.46,0,0,1,.72.36L78.67,39.4a3.76,3.76,0,0,1-.42-.76,4,4,0,0,1-.33-1.59,4,4,0,0,1,.31-1.54,3.49,3.49,0,0,1,.39-.74l-28-26.11a3.69,3.69,0,0,1-.88.57A4,4,0,0,1,48,9.64a4.11,4.11,0,0,1-1.78-.4,4.25,4.25,0,0,1-.87-.58l-28,26.11a4.73,4.73,0,0,1,.39.74,4.11,4.11,0,0,1,0,3.13,5.08,5.08,0,0,1-.42.76Z"/><path class="cls-2" d="M10.86,63.49,2.1,45.17a102.17,102.17,0,0,1,47-11.91,101.47,101.47,0,0,1,47,12L87.3,63.87s-17.25-9.95-38.17-9.95-38.27,9.57-38.27,9.57Z"/><path class="cls-2" d="M13.17,68.5,3.81,48.78S22.42,37.51,49.13,37.51,94.41,48.89,94.41,48.89L85.13,68.61a77.68,77.68,0,0,0-72-.11Z"/><path class="cls-5" d="M12.39,66.74,7.82,57.09,3,47a97,97,0,0,1,92.35,0l-4.6,9.81-4.67,9.94A81.3,81.3,0,0,0,49.2,57.53a80.67,80.67,0,0,0-36.81,9.21Z"/><path class="cls-1" d="M73.16,55.27l2.91,1.2c.52-.81,1.26-1.63,1.8-2.41l1.44,1.81,2.13-.27c-.15.89-.21,2-.39,2.89l3.12,1.24a3.67,3.67,0,0,1-.38-1.15c0-.26.73-8.79.73-8.8s.14-.19.33-.28a1.08,1.08,0,0,1,.46-.14c0-.39-.42-.86-1.16-1.43a3.8,3.8,0,0,0-1.22-.7,5.14,5.14,0,0,0-3.25-.35.76.76,0,0,1,.33.43.7.7,0,0,1,0,.47c0,.12-5,6.08-5.44,6.57a7,7,0,0,1-1.43.92Zm5.9-2.62c1.48-1.83,2.74-3.32,2.9-3.53s.13,0,.14,0c-.23,1.46-.36,3.37-.58,4.56L80,54l-1-1.32Z"/><path class="cls-1" d="M47.71,42.3a3,3,0,0,0-1.11-2l4-.07c-.14,2.13-.09,7.12-.09,10.22q0,.49.75.87c-2.87,0-3.68,0-3.61,0C47.85,48.79,47.71,45.11,47.71,42.3Z"/><path class="cls-1" d="M72.16,49.48s2,5.24,3.79,7c0,0-2.48-1.06-3.25-1.24-1-.23-1.33-.44-1.31-.46-.48-2-1.13-2.64-1.89-4.41l-1.88-.53a21.44,21.44,0,0,0-.81,3.88l-3.19-.8a2.23,2.23,0,0,0-.36-.07c.07,0,.27-.13.62-.46a1.72,1.72,0,0,0,.51-.8c.83-3,1.26-5.16,2.07-8.17a1.71,1.71,0,0,0-.39-1.33l3.55,1a40.71,40.71,0,0,0-1.57,5.39c2,.76,2.72-1.09,5.39-4.32l4.23,1.27a2.38,2.38,0,0,1-.72.21c-1.34.27-4.6,3.18-4.79,3.9Z"/><path class="cls-1" d="M54.87,47.36a6.72,6.72,0,0,1-4.55,3.73c1.23.56,3.52-.11,4.84.34a37,37,0,0,1,2.27-3.34l1.83.27,0,.47c-.16,1.05-.37,2.1-.58,3.15l3.6.64a10.06,10.06,0,0,1-.41-2.79,29.63,29.63,0,0,1,.68-4.57,7.1,7.1,0,0,1,1.2-2.87,3.73,3.73,0,0,1,.57-.53l0-.11c-2.81-.39-6-1.85-9.13-.79a3.5,3.5,0,0,0-.38,6.4Zm5.32-4.51-.72,4-1.23-.15c-1.71-.21-2.74-1.46-2.22-3.11a2.72,2.72,0,0,1,3-1.66C59.7,42.06,60.28,42.22,60.19,42.85Z"/><path class="cls-1" d="M42.94,47.92a1.57,1.57,0,0,0-1-1.28,4.83,4.83,0,0,0-3,0A1.09,1.09,0,0,1,39,47c0,.2.07.5.13.85s.36,2.17.39,2.5c2,.27,3.66-1,3.4-2.42Zm1.31-7.55a11.89,11.89,0,0,1-1.06,2.84,2.67,2.67,0,0,0-1.52-.74,6.07,6.07,0,0,0-2.08,0c-.45.08-1.44.27-1.36.72,0,.23.11.47.23,1,.19.88.23.89.36.87a9.71,9.71,0,0,1,2.32-.32,4.85,4.85,0,0,1,3.26.85,3.34,3.34,0,0,1-.06,5.12c-2,1.74-5,1.37-7.32,1.19a49.69,49.69,0,0,0-1.15-7.35c-.35-1.29-.75-2.45-1.46-2.66a18.82,18.82,0,0,1,2.76-.77,31.6,31.6,0,0,1,7.08-.79Z"/><path class="cls-1" d="M24.28,55.56l3-.77c-.07-1,0-2.06,0-3l2.24.6,1.54-1.49c.42.81,1,1.74,1.42,2.55l3.23-.86a4.14,4.14,0,0,1-1-.7c-.18-.19-4.7-7.5-4.7-7.51a.61.61,0,0,1,.09-.42,1.31,1.31,0,0,1,.28-.39c-.25-.3-.84-.44-1.78-.45a3.59,3.59,0,0,0-1.39.16,5.17,5.17,0,0,0-2.8,1.67.76.76,0,0,1,.52.14.73.73,0,0,1,.3.37c0,.12-.3,7.85-.4,8.53A6.37,6.37,0,0,1,24.28,55.56Zm3.13-5.63c.09-2.35.2-4.31.2-4.56s.12-.08.12-.08c.7,1.31,1.74,2.92,2.27,4l-1,1.1-1.58-.47Z"/><path class="cls-1" d="M15.86,53.25a3.68,3.68,0,0,1-.34-1.66c1.1-.12,2.6-1.19,2-2.43a.93.93,0,0,0-.6-.53,1.81,1.81,0,0,0-.9,0,3,3,0,0,0-1,.38,3,3,0,0,0-.86.71,2.27,2.27,0,0,0-.5.91,3.65,3.65,0,0,0-.27,1.52c-1.92-1.09-2.69-2.22-2.61-2.3a33.61,33.61,0,0,1,3.26-2.42,7.42,7.42,0,0,1,2.93-1,4.42,4.42,0,0,1,1.37.06,2,2,0,0,1,1.73,2.79A3.33,3.33,0,0,1,18.94,51c3.86-.84,5.69,2.25,3.59,4.85A6.36,6.36,0,0,1,21.25,57a10.87,10.87,0,0,1-1.6,1,11.7,11.7,0,0,1-1.66.63,6.06,6.06,0,0,1-1.58.22,2.27,2.27,0,0,1-2.24-1.07,1.72,1.72,0,0,1,.38-2.06,2.05,2.05,0,0,1,2.08-.49c-.37,1.41.8,2,2.42,1.19.76-.37,2-1.63,1.14-2.88-1-1.5-3.25-.83-4.33-.22Z"/><path class="cls-1" d="M26.17,45.74A21.63,21.63,0,0,0,23,47c0-2.86,0-2.16,0-2.26a37.26,37.26,0,0,1,8.76-2.34,10.55,10.55,0,0,0,.94,1.91,14.91,14.91,0,0,0-3.4.63c-1.31.33-2.94.79-3.07.82Z"/><path class="cls-1" d="M80.58,48.57a21.11,21.11,0,0,0-3.22-.92,18.37,18.37,0,0,0,1.33-1.83A30.2,30.2,0,0,1,87,49.34a22.49,22.49,0,0,0-.37,2.33,15.51,15.51,0,0,0-3.08-1.92C82.28,49.23,80.69,48.61,80.58,48.57Z"/><path class="cls-3" d="M72.2,14.8c-2-1.45-7.91,2.33-9.87,4.57-.91,2,.28,2.77-1,3.8l2.85,4.1c-4,2.77-11.66,7.82-16.79,10-.5.21-1,.39-1.43.54-.75.26-.93-.42-1.42-.4-1.13,0-2.12.42-2.68.42-1.48,0-1.5.17-1.47.16-2.77.28-1.53-.25-1-.47,1-.44-5.93.89-5.68.65a.36.36,0,0,0,.12-.37,38.71,38.71,0,0,0-1.89-7.44c-.94-2.35-.54-7,3.53-6.17,5.18.44,8.8-1.58,13-3.43A91.3,91.3,0,0,0,65.73,9.49c2.38-2,4.3-4.4,6.64-4l.55.15a3.92,3.92,0,0,1,.66.31C76.83,7.86,75.45,13.78,72.2,14.8Z"/><path class="cls-1" d="M42.35,24.63c-3.72,1.14-5.71.15-8,.69-1.36.32-2.38,1.55-1.25,4.56a49.41,49.41,0,0,1,2,8.26,48.38,48.38,0,0,0,6.54-.66A44.59,44.59,0,0,0,46.61,36c6.43-2.61,15.78-8.79,15.78-8.79l-6.3-9.06A56.71,56.71,0,0,1,46.8,23c-1.59.67-3.13,1.24-4.45,1.65Z"/><path class="cls-1" d="M71.88,7.11a3.43,3.43,0,0,0-2.07.64A18.22,18.22,0,0,0,68,9.19c-1.38,1.15-2.8,2.25-4.21,3.37-2.7,2.13-6.25,4.45-6.21,4.53-1,.54,1,4.4,2.83,4.16a5.61,5.61,0,0,1,2.39-4.4c2.54-2,6.87-5.5,9.41-4.38C73.49,12,74,9.56,73.6,8.37a2,2,0,0,0-1.72-1.26Z"/><path class="cls-3" d="M59.93,17.51a.52.52,0,0,1,.27-1,.53.53,0,0,1,.37.64.52.52,0,0,1-.64.36Z"/><path class="cls-3" d="M59.31,25c.22.18,1.13,1,1.13,1l-.74.52a3.48,3.48,0,0,0-.15-.7,4.08,4.08,0,0,0-.35-.69c-.16-.24-.12-.33.11-.15Z"/><path class="cls-3" d="M57.6,25.92c.24.3.56.68,1.09,1.23l-.72.51a3.47,3.47,0,0,0-.15-.78,5.45,5.45,0,0,0-.38-.89c-.13-.24,0-.33.16-.07Z"/><path class="cls-3" d="M55.64,26.65c.17.21.7.92,1.29,1.67-.4.27-.37.23-.76.5a4.5,4.5,0,0,0-.19-1,7.57,7.57,0,0,0-.45-1.1c-.08-.13-.05-.3.11-.1Z"/><path class="cls-3" d="M53.87,27.51c.14.23.62,1,1.27,1.93-.42.25-.53.3-1,.56a7.14,7.14,0,0,0-.13-1.12,9,9,0,0,0-.35-1.3C53.62,27.35,53.73,27.28,53.87,27.51Z"/><path class="cls-3" d="M52.05,28.45c.29.49.56.87,1.26,2l-1,.54A4.24,4.24,0,0,0,52.23,30c-.29-1-.34-1.33-.43-1.57S51.81,28.06,52.05,28.45Z"/><path class="cls-3" d="M50.08,29.08c.25.43.61,1,1.37,2.39-.46.25-.63.31-1.1.56a3.54,3.54,0,0,0-.05-1,14.63,14.63,0,0,0-.4-1.84c-.11-.33-.07-.5.18-.07Z"/><path class="cls-3" d="M48.13,29.7c.15.3.62,1.13,1.44,2.7l-1.21.6a3.32,3.32,0,0,0,0-1.07,20.39,20.39,0,0,0-.43-2.15c-.11-.32.05-.39.19-.08Z"/><path class="cls-3" d="M46.15,30.36c.25.6.63,1.12,1.51,2.9l-1.26.57a2.08,2.08,0,0,0,0-1.11,21.12,21.12,0,0,0-.51-2.29C45.71,29.86,45.89,29.77,46.15,30.36Z"/><path class="cls-3" d="M44.18,30.82c.28.55.61,1.26,1.55,3.24l-1.32.55a1.75,1.75,0,0,0,.11-1.21A19.11,19.11,0,0,0,44,31c-.21-.58-.07-.74.21-.2Z"/><path class="cls-3" d="M42,30.93c.16.34.82,1.69,1.82,3.87l-1.4.57a2.87,2.87,0,0,0,0-1.18A29.57,29.57,0,0,0,41.75,31c0-.25.06-.38.21,0Z"/><path class="cls-3" d="M39.84,31.09c.11.22,1,2,2,4.43-.58.22-1,.36-1.37.45a3.65,3.65,0,0,0-.13-1.56c-.17-.66-.74-3.15-.78-3.32S39.73,30.87,39.84,31.09Z"/><path class="cls-3" d="M37.77,31.41c.18.46,1,2.16,2.08,4.75a15,15,0,0,1-1.6.5c.14,0,.16-.68,0-1.42-.36-1.81-.81-3.61-.91-4s.22-.31.41.15Z"/><path class="cls-3" d="M35.55,31.2c.11.3,2.27,5.46,2.27,5.46l-1.38.48s.1-.21-.09-1.15-1.11-4.72-1.15-4.93.24-.15.35.14Z"/><path class="cls-3" d="M64.45,14.37a.52.52,0,0,1-.37-.63.53.53,0,0,1,.64-.37.51.51,0,0,1,.36.64A.5.5,0,0,1,64.45,14.37Z"/><path class="cls-3" d="M69.1,10.93a.52.52,0,0,1-.36-.63.53.53,0,0,1,.64-.37.52.52,0,0,1-.28,1Z"/><path class="cls-3" d="M33.91,27.41a1.06,1.06,0,1,1,.77,1.3,1.07,1.07,0,0,1-.77-1.3Z"/><path class="cls-6" d="M50.5,36.37a71.77,71.77,0,0,1,9.42,1c1.5.17,1.08.95.61.91a108.51,108.51,0,0,0-15.24-.16,90.36,90.36,0,0,0-11.14,1.08c-3.33.63-1.9-.08-1.33-.38a11.87,11.87,0,0,1,1.38-.67c2.2-.77,8.07-2,16.3-1.75Z"/><path class="cls-5" d="M82,36.06a1,1,0,1,1-1,1A1,1,0,0,1,82,36.06Z"/><path class="cls-5" d="M48.1,68.28a1,1,0,1,1-1,1A1,1,0,0,1,48.1,68.28Z"/><path class="cls-5" d="M13.89,36.06a1,1,0,1,1-1,1A1,1,0,0,1,13.89,36.06Z"/><path class="cls-5" d="M48,4.54a1,1,0,1,1,0,2,1,1,0,0,1,0-2Z"/></g></g></g></g></g></svg>